<svg width="156" height="48" viewBox="0 0 156 48" fill="none" xmlns="http://www.w3.org/2000/svg">
<rect width="27.7661" height="8.15091" transform="matrix(0.992546 -0.121869 0.00888914 0.99996 33 3.38385)" fill="white"/>
<path d="M36.7242 2.92659L41.1932 2.37786L39.776 10.7114L35.307 11.2601L36.7242 2.92659Z" fill="black"/>
<path d="M45.6623 1.82905L50.1314 1.28032L48.7141 9.61382L44.2451 10.1626L45.6623 1.82905Z" fill="black"/>
<path d="M54.6004 0.731641L59.0694 0.182911L57.6522 8.51641L53.1832 9.06514L54.6004 0.731641Z" fill="black"/>
<path d="M46.6996 26.608L46.6276 23.152H47.2576C47.6056 23.152 47.9056 23.092 48.1576 22.972C48.4216 22.84 48.6256 22.654 48.7696 22.414C48.9136 22.174 48.9856 21.898 48.9856 21.586C48.9856 21.274 48.9136 21.004 48.7696 20.776C48.6376 20.548 48.4456 20.374 48.1936 20.254C47.9416 20.122 47.6416 20.056 47.2936 20.056C46.8136 20.056 46.3816 20.194 45.9976 20.47C45.6136 20.734 45.3076 21.112 45.0796 21.604L43.4776 20.2C43.8376 19.444 44.3536 18.856 45.0256 18.436C45.7096 18.004 46.5076 17.788 47.4196 17.788C48.1876 17.788 48.8656 17.95 49.4536 18.274C50.0536 18.586 50.5156 19.018 50.8396 19.57C51.1756 20.11 51.3436 20.728 51.3436 21.424C51.3436 22.096 51.1996 22.684 50.9116 23.188C50.6236 23.692 50.2276 24.106 49.7236 24.43C49.2196 24.754 48.6316 24.982 47.9596 25.114L48.8056 24.142L48.6436 26.608H46.6996ZM47.6536 31.18C47.2336 31.18 46.8796 31.036 46.5916 30.748C46.3156 30.46 46.1776 30.106 46.1776 29.686C46.1776 29.266 46.3156 28.912 46.5916 28.624C46.8796 28.336 47.2336 28.192 47.6536 28.192C48.0856 28.192 48.4396 28.336 48.7156 28.624C48.9916 28.912 49.1296 29.266 49.1296 29.686C49.1296 30.106 48.9916 30.46 48.7156 30.748C48.4396 31.036 48.0856 31.18 47.6536 31.18Z" fill="white"/>
<path d="M3.01041 38V11.286H6.65841L17.4884 28.614H15.3984L26.1904 11.286H29.8384V38H24.7084V20.14L25.6964 20.444L18.1724 32.528H14.6764L7.15241 20.444L8.17841 20.14V38H3.01041ZM47.7976 38.418C45.8469 38.418 44.0229 38.0633 42.3256 37.354C40.6536 36.6447 39.1842 35.6693 37.9176 34.428C36.6762 33.1613 35.7009 31.692 34.9916 30.02C34.2822 28.3227 33.9276 26.5113 33.9276 24.586C33.9276 22.6607 34.2696 20.8747 34.9536 19.228C35.6629 17.556 36.6382 16.0993 37.8796 14.858C39.1462 13.5913 40.6156 12.616 42.2876 11.932C43.9596 11.2227 45.7709 10.868 47.7216 10.868C49.6976 10.868 51.5216 11.2227 53.1936 11.932C54.8656 12.616 56.3222 13.5913 57.5636 14.858C58.8302 16.0993 59.8182 17.556 60.5276 19.228C61.2369 20.9 61.5916 22.6987 61.5916 24.624C61.5916 26.5493 61.2369 28.348 60.5276 30.02C59.8182 31.692 58.8302 33.1613 57.5636 34.428C56.3222 35.6693 54.8656 36.6447 53.1936 37.354C51.5469 38.0633 49.7482 38.418 47.7976 38.418ZM47.7216 33.592C49.4442 33.592 50.9389 33.212 52.2056 32.452C53.4722 31.692 54.4602 30.6407 55.1696 29.298C55.9042 27.9553 56.2716 26.3847 56.2716 24.586C56.2716 23.2687 56.0689 22.0653 55.6636 20.976C55.2582 19.8867 54.6756 18.9493 53.9156 18.164C53.1556 17.3533 52.2562 16.7327 51.2176 16.302C50.1789 15.8713 49.0136 15.656 47.7216 15.656C46.0496 15.656 44.5676 16.036 43.2756 16.796C42.0089 17.5307 41.0082 18.5693 40.2736 19.912C39.5642 21.2547 39.2096 22.8127 39.2096 24.586C39.2096 25.9287 39.4122 27.1573 39.8176 28.272C40.2482 29.3867 40.8309 30.3367 41.5656 31.122C42.3256 31.9073 43.2249 32.5153 44.2636 32.946C45.3276 33.3767 46.4802 33.592 47.7216 33.592ZM73.0135 38L62.4875 11.286H68.0735L76.2055 32.908H74.0395L82.2475 11.286H87.7575L77.1175 38H73.0135Z" fill="white"/>
<path d="M97.4499 38.38C95.2966 38.38 93.4472 38.0127 91.9019 37.278C90.3819 36.5433 89.0012 35.4413 87.7599 33.972L91.1799 30.552C91.9652 31.5907 92.8772 32.4013 93.9159 32.984C94.9546 33.5413 96.2212 33.82 97.7159 33.82C99.0586 33.82 100.123 33.554 100.908 33.022C101.719 32.49 102.124 31.7553 102.124 30.818C102.124 30.0073 101.896 29.3487 101.44 28.842C100.984 28.3353 100.376 27.9047 99.6159 27.55C98.8812 27.1953 98.0579 26.8787 97.1459 26.6C96.2592 26.296 95.3599 25.954 94.4479 25.574C93.5612 25.194 92.7379 24.7253 91.9779 24.168C91.2432 23.5853 90.6479 22.8507 90.1919 21.964C89.7359 21.052 89.5079 19.912 89.5079 18.544C89.5079 16.9227 89.9006 15.542 90.6859 14.402C91.4712 13.262 92.5479 12.388 93.9159 11.78C95.2839 11.172 96.8292 10.868 98.5519 10.868C100.376 10.868 102.023 11.21 103.492 11.894C104.961 12.578 106.165 13.4647 107.102 14.554L103.682 17.974C102.897 17.1127 102.086 16.4793 101.25 16.074C100.439 15.6687 99.5146 15.466 98.4759 15.466C97.2852 15.466 96.3479 15.694 95.6639 16.15C94.9799 16.606 94.6379 17.2647 94.6379 18.126C94.6379 18.8607 94.8659 19.456 95.3219 19.912C95.7779 20.368 96.3732 20.7607 97.1079 21.09C97.8679 21.4193 98.6912 21.736 99.5779 22.04C100.49 22.344 101.389 22.686 102.276 23.066C103.188 23.446 104.011 23.94 104.746 24.548C105.506 25.156 106.114 25.9413 106.57 26.904C107.026 27.8413 107.254 29.0067 107.254 30.4C107.254 32.8827 106.38 34.8333 104.632 36.252C102.884 37.6707 100.49 38.38 97.4499 38.38ZM116.869 38V11.856H122.075V38H116.869ZM108.357 15.884V11.286H130.587V15.884H108.357ZM137.955 26.828V22.8H144.149C145.416 22.8 146.391 22.4833 147.075 21.85C147.784 21.1913 148.139 20.292 148.139 19.152C148.139 18.1133 147.784 17.252 147.075 16.568C146.391 15.8587 145.416 15.504 144.149 15.504H137.955V11.286H144.605C146.328 11.286 147.835 11.628 149.127 12.312C150.444 12.9707 151.458 13.8827 152.167 15.048C152.902 16.2133 153.269 17.556 153.269 19.076C153.269 20.6467 152.902 22.0147 152.167 23.18C151.458 24.32 150.444 25.2193 149.127 25.878C147.81 26.5113 146.277 26.828 144.529 26.828H137.955ZM134.155 38V11.286H139.323V38H134.155ZM148.747 38L139.931 26.448L144.681 24.966L155.017 38H148.747Z" fill="#FFB442"/>
</svg>
